<svg width="520" height="520" viewBox="0 0 520 520" fill="none" xmlns="http://www.w3.org/2000/svg">
<path d="M520 260C520 403.6 403.6 520 260 520C116.4 520 0 403.6 0 260C0 116.4 116.4 0 260 0C403.6 0 520 116.4 520 260Z" fill="white"/>
<path d="M339.3 260C339.3 216.2 303.8 180.8 260.1 180.8C216.3 180.8 180.9 216.3 180.9 260C180.9 303.7 216.4 339.2 260.1 339.2C303.8 339.2 339.3 303.8 339.3 260Z" fill="#E52629"/>
<path d="M260.1 0C235.3 0 211.4 3.5 188.7 10V150.5C209.2 137.1 233.7 129.3 260.1 129.3C332.3 129.3 390.8 187.8 390.8 260C390.8 332.2 332.3 390.7 260.1 390.7C187.9 390.7 129.4 332.2 129.4 260C129.4 257.7 129.5 255.4 129.6 253.1L129.4 253.2V35.3C52.0996 80.4 0.0996094 164.1 0.0996094 260C0.0996094 403.6 116.5 520 260.1 520C403.7 520 520 403.6 520 260C520 116.4 403.6 0 260.1 0Z" fill="#E52629"/>
</svg>
